<svg width="20" height="21" viewBox="0 0 20 21" fill="none" xmlns="http://www.w3.org/2000/svg">
<g id="icons">
<path id="Vector 9" d="M10.002 13.8335L9.6484 14.187L10.002 14.5406L10.3555 14.187L10.002 13.8335ZM10.502 3.8335C10.502 3.55735 10.2781 3.3335 10.002 3.3335C9.72581 3.3335 9.50195 3.55735 9.50195 3.8335L10.502 3.8335ZM4.6484 9.18705L9.6484 14.187L10.3555 13.4799L5.35551 8.47994L4.6484 9.18705ZM10.3555 14.187L15.3555 9.18705L14.6484 8.47994L9.6484 13.4799L10.3555 14.187ZM10.502 13.8335L10.502 3.8335L9.50195 3.8335L9.50195 13.8335L10.502 13.8335Z" fill="#394256"/>
<path id="Vector 4" d="M4.1687 18H15.8354" stroke="#394256"/>
</g>
</svg>
