<svg width="47" height="33" viewBox="0 0 47 33" fill="none" xmlns="http://www.w3.org/2000/svg">
<g id="Group">
<path id="Vector" fill-rule="evenodd" clip-rule="evenodd" d="M19.5776 3.61823C21.0625 2.07249 23.1291 1.11529 25.4122 1.11529C28.4563 1.11529 31.0945 2.80646 32.5151 5.32632C33.7761 4.7626 35.142 4.47157 36.5232 4.47227C42.0026 4.47227 46.4504 8.95389 46.4504 14.484C46.4504 20.0142 42.0026 24.4958 36.5232 24.4958C35.8535 24.4958 35.2007 24.4285 34.5615 24.3013C33.3184 26.5168 30.9423 28.0219 28.2365 28.0219C27.1348 28.0241 26.0473 27.7742 25.057 27.2913C23.7971 30.2509 20.8629 32.331 17.4468 32.331C13.8784 32.331 10.8512 30.0818 9.68426 26.9193C9.16489 27.0289 8.6355 27.084 8.1047 27.0836C3.85985 27.0836 0.426758 23.5998 0.426758 19.3211C0.426758 16.4461 1.97249 13.9432 4.26573 12.5903C3.77922 11.4695 3.52879 10.2606 3.53007 9.03879C3.53007 4.10055 7.53815 0.109375 12.4764 0.109375C15.3683 0.109375 17.9558 1.48768 19.5793 3.62702" fill="#00A1E0"/>
<path id="Union" fill-rule="evenodd" clip-rule="evenodd" d="M27.6347 11.3768C27.7238 11.3924 27.8118 11.4132 27.8984 11.4394C27.9173 11.4468 27.9684 11.4722 27.9474 11.5324L27.7435 12.0925C27.7264 12.1346 27.7147 12.1603 27.6278 12.1338C27.6062 12.1274 27.574 12.1181 27.4913 12.1005C27.4313 12.088 27.3525 12.0783 27.2721 12.0783C27.1751 12.077 27.0785 12.0909 26.9858 12.1196C26.9013 12.1473 26.8246 12.195 26.7624 12.2586C26.6958 12.3254 26.6172 12.4227 26.5754 12.5432C26.4903 12.7887 26.4499 13.0475 26.438 13.1236C26.4362 13.1351 26.4351 13.1424 26.4345 13.145H27.2874C27.3587 13.1446 27.3814 13.1778 27.3745 13.2309L27.275 13.7856C27.2596 13.8659 27.1856 13.8632 27.1856 13.8632H26.3068L25.7058 17.264C25.6427 17.6156 25.5639 17.9173 25.4714 18.1603C25.3779 18.4055 25.2801 18.5853 25.1247 18.757C24.9809 18.9161 24.8184 19.0336 24.6317 19.1011C24.4462 19.1681 24.2224 19.2026 23.9769 19.2026C23.8597 19.2026 23.7345 19.2004 23.5861 19.1654C23.4792 19.1402 23.4208 19.1222 23.3424 19.0942C23.3089 19.0822 23.2823 19.0406 23.3013 18.9878C23.3199 18.9344 23.477 18.5023 23.4991 18.4456C23.5264 18.3763 23.5955 18.4027 23.5955 18.4027L23.599 18.4041C23.6447 18.4233 23.6776 18.4371 23.7394 18.4493C23.8029 18.462 23.8888 18.4728 23.9534 18.4728C24.0694 18.4728 24.1753 18.4586 24.2673 18.4277C24.3787 18.3903 24.4433 18.3262 24.5115 18.2391C24.5818 18.1491 24.639 18.0252 24.6975 17.8598C24.7569 17.6922 24.8105 17.471 24.8573 17.2021L25.4555 13.8632H24.8659C24.7949 13.8635 24.7721 13.8304 24.779 13.7773L24.8785 13.2226C24.894 13.1419 24.9679 13.145 24.9679 13.145H25.5735L25.6062 12.9642C25.6966 12.4286 25.8771 12.0215 26.1423 11.7543C26.4093 11.4851 26.7897 11.3488 27.2721 11.3488C27.3936 11.3474 27.5149 11.3568 27.6347 11.3768ZM15.9036 17.2902C15.9482 17.2902 15.98 17.2538 15.98 17.2092V11.5153C15.98 11.4709 15.9482 11.4348 15.9036 11.4348H15.1961C15.1513 11.4348 15.1195 11.4709 15.1195 11.5153V17.2092C15.1195 17.2538 15.1513 17.2902 15.1961 17.2902H15.9036ZM7.14317 16.9063C7.12934 16.8931 7.10667 16.8716 7.13058 16.8092L7.1299 16.8079L7.31593 16.2904C7.34536 16.2017 7.413 16.2313 7.44006 16.2477C7.46083 16.2604 7.4794 16.2726 7.49858 16.2851C7.52671 16.3034 7.55612 16.3226 7.59565 16.3457C8.14528 16.693 8.65247 16.6957 8.81161 16.6957C9.22087 16.6957 9.47624 16.4776 9.47624 16.185V16.1691C9.47624 15.8512 9.08389 15.7301 8.63065 15.5907L8.53053 15.5596C7.90818 15.382 7.24186 15.125 7.24186 14.3369V14.3208C7.24186 13.5733 7.84561 13.0507 8.7098 13.0507L8.804 13.0504C9.31135 13.0504 9.80179 13.1975 10.1569 13.414C10.1892 13.4333 10.2207 13.4707 10.2028 13.5202C10.1859 13.5676 10.0281 13.9899 10.01 14.0377C9.97666 14.1262 9.885 14.067 9.885 14.067C9.57551 13.896 9.09183 13.7609 8.68595 13.7609C8.32066 13.7609 8.08389 13.9554 8.08389 14.2192V14.2349C8.08389 14.5427 8.48808 14.675 8.95654 14.8268L9.03755 14.853C9.65652 15.0475 10.3195 15.3198 10.3195 16.0673V16.0832C10.3195 16.8916 9.73262 17.3939 8.78894 17.3939C8.32556 17.3939 7.88247 17.3211 7.41233 17.0725C7.3918 17.0607 7.37128 17.0491 7.35079 17.0375C7.28348 16.9995 7.21644 16.9617 7.15019 16.9137C7.14858 16.9114 7.14607 16.909 7.14317 16.9063ZM20.9597 16.9051C20.9457 16.8919 20.9228 16.8704 20.9468 16.8079L20.9448 16.8065L21.1308 16.289C21.158 16.2045 21.2377 16.2356 21.2548 16.2464C21.2662 16.2538 21.277 16.2608 21.2877 16.2678C21.3242 16.2916 21.3591 16.3144 21.4105 16.3443C21.9585 16.6917 22.467 16.6944 22.6265 16.6944C23.0358 16.6944 23.2911 16.4762 23.2911 16.1837V16.1678C23.2911 15.8498 22.9005 15.7287 22.4455 15.5894L22.3456 15.5583C21.7232 15.3807 21.0569 15.1236 21.0569 14.3355V14.3195C21.0569 13.572 21.6607 13.0494 22.5248 13.0494L22.6192 13.0491C23.1266 13.0491 23.617 13.1962 23.9722 13.4127C24.0043 13.4319 24.0359 13.4693 24.0178 13.5189C24.0026 13.5662 23.8446 13.9885 23.8267 14.0364C23.7932 14.1248 23.7016 14.0656 23.7016 14.0656C23.3904 13.8946 22.9084 13.7595 22.5025 13.7595C22.1372 13.7595 21.9005 13.954 21.9005 14.2178V14.2336C21.9005 14.5414 22.3047 14.6736 22.7731 14.8255L22.8541 14.8517C23.4748 15.0462 24.136 15.3184 24.136 16.0659V16.0818C24.136 16.8902 23.5492 17.3925 22.6055 17.3925C22.1421 17.3925 21.699 17.3198 21.2289 17.0712C21.2082 17.0592 21.1874 17.0475 21.1667 17.0358C21.0995 16.9979 21.0325 16.9602 20.9668 16.9124C20.9651 16.9101 20.9626 16.9078 20.9597 16.9051ZM30.1296 16.2958C30.2963 16.0404 30.3815 15.6802 30.3815 15.2236V15.2253C30.3815 14.7686 30.2973 14.4101 30.1296 14.1581C29.9638 13.909 29.7135 13.7878 29.3618 13.7878C29.01 13.7878 28.7611 13.9078 28.5974 14.1581C28.4326 14.4101 28.3488 14.7686 28.3488 15.2253C28.3488 15.6819 28.4321 16.0438 28.5974 16.2975C28.7614 16.5488 29.0117 16.6712 29.3618 16.6712C29.7118 16.6712 29.9632 16.5478 30.1296 16.2958ZM30.8111 13.6931C30.9718 13.8859 31.092 14.1159 31.1696 14.378H31.1679C31.2447 14.6384 31.2838 14.9242 31.2838 15.2253C31.2838 15.528 31.2447 15.8121 31.1679 16.0725C31.0902 16.3347 30.9699 16.5647 30.8094 16.7575C30.6488 16.9503 30.4441 17.1045 30.204 17.2141C29.9638 17.3237 29.6797 17.3795 29.3601 17.3795C29.0404 17.3795 28.7563 17.3237 28.5145 17.2141C28.2743 17.1042 28.0699 16.9503 27.909 16.7575C27.7484 16.5647 27.6278 16.3347 27.5505 16.0725C27.4736 15.8121 27.4345 15.528 27.4345 15.2253C27.4345 14.9225 27.4736 14.6384 27.5505 14.378C27.6283 14.1159 27.7487 13.8859 27.909 13.6931C28.0697 13.5003 28.2743 13.3454 28.5145 13.2331C28.7563 13.1209 29.0388 13.0639 29.3601 13.0639C29.6814 13.0639 29.9655 13.1206 30.2057 13.2331C30.4475 13.3447 30.6503 13.5003 30.8111 13.6931ZM37.5445 16.495C37.5445 16.495 37.6193 16.4661 37.6452 16.5427H37.6458L37.8403 17.0771C37.865 17.1434 37.8082 17.1708 37.8082 17.1708C37.5105 17.2887 37.0962 17.3704 36.692 17.3704C36.0088 17.3704 35.4845 17.1742 35.1361 16.7852C34.7877 16.3979 34.6119 15.8686 34.6119 15.2158C34.6119 14.9131 34.655 14.6273 34.7404 14.3668C34.8266 14.1047 34.9552 13.8747 35.1243 13.6819C35.2934 13.4891 35.5065 13.334 35.7585 13.2219C36.0105 13.1096 36.3047 13.0529 36.6362 13.0529C36.8594 13.0529 37.0573 13.0665 37.2281 13.0925C37.4108 13.1201 37.6519 13.1855 37.7541 13.2254C37.7728 13.2327 37.8242 13.2581 37.8033 13.3181C37.7535 13.4588 37.7141 13.5668 37.6727 13.6803C37.6523 13.736 37.6315 13.793 37.6088 13.8559C37.5792 13.9373 37.5175 13.9104 37.5175 13.9104C37.257 13.8289 37.0084 13.7911 36.6837 13.7911C36.2947 13.7911 36.0005 13.9231 35.8094 14.1767C35.6157 14.4338 35.5078 14.7686 35.5067 15.2151C35.505 15.7056 35.6267 16.0675 35.8449 16.2924C36.0614 16.5172 36.3658 16.6306 36.7463 16.6306C36.9002 16.6306 37.0463 16.6203 37.1775 16.5997C37.3078 16.5794 37.43 16.5388 37.5445 16.495ZM39.0242 14.7835C39.0242 14.7836 39.0242 14.7838 39.0241 14.7839L39.0157 14.7835L39.0242 14.7835ZM39.0242 14.7835L40.9267 14.7839C40.9088 14.5386 40.8608 14.3196 40.7508 14.1547C40.5851 13.9051 40.3534 13.7675 40.0033 13.7675C39.6533 13.7675 39.4041 13.9045 39.2406 14.1547C39.1314 14.3187 39.0619 14.53 39.0242 14.7835ZM41.3377 13.6017C41.4459 13.7184 41.6121 13.9738 41.6793 14.2258L41.6828 14.2263C41.8436 14.7901 41.7752 15.2826 41.7639 15.364C41.7632 15.3693 41.7627 15.3729 41.7625 15.3746C41.7552 15.4433 41.6849 15.4439 41.6849 15.4439L39.0128 15.4419C39.028 15.8478 39.1261 16.1336 39.3223 16.3298C39.5151 16.5214 39.8212 16.6437 40.2355 16.6443C40.8137 16.6459 41.0896 16.5395 41.2787 16.4666C41.297 16.4595 41.3145 16.4528 41.3314 16.4465C41.3314 16.4465 41.4051 16.4201 41.4319 16.493L41.6061 16.9817C41.6409 17.0641 41.613 17.0927 41.5834 17.1092C41.4177 17.2022 41.0118 17.3739 40.2406 17.3764C39.8668 17.3776 39.5405 17.3237 39.2716 17.2197C39.001 17.1148 38.776 16.966 38.6002 16.7749C38.4243 16.5855 38.2939 16.3572 38.2129 16.0967C38.1327 15.838 38.092 15.5522 38.092 15.2444C38.092 14.9433 38.1312 14.6558 38.209 14.3937C38.2868 14.1282 38.4087 13.8965 38.5709 13.7003C38.7333 13.5042 38.9396 13.3472 39.1848 13.2319C39.43 13.1174 39.7327 13.0611 40.0659 13.0611C40.3286 13.0606 40.5886 13.1134 40.8303 13.2161C40.9977 13.2872 41.1652 13.4174 41.3377 13.6017ZM17.6646 14.7835C17.6646 14.7836 17.6646 14.7838 17.6646 14.7839L17.6561 14.7835L17.6646 14.7835ZM17.881 14.1547C17.772 14.3187 17.7024 14.53 17.6646 14.7835L19.5672 14.7839C19.5491 14.5386 19.501 14.3196 19.3913 14.1547C19.2255 13.9051 18.9938 13.7675 18.6438 13.7675C18.2937 13.7675 18.0448 13.9045 17.881 14.1547ZM19.9781 13.6017C20.0863 13.7184 20.2528 13.9738 20.3197 14.2258L20.3216 14.2263C20.4825 14.7901 20.4141 15.2827 20.4028 15.364C20.4021 15.3693 20.4016 15.3729 20.4014 15.3746C20.3941 15.4433 20.3238 15.4439 20.3238 15.4439L17.6517 15.4419C17.6669 15.8478 17.765 16.1336 17.9612 16.3298C18.154 16.5214 18.4618 16.6437 18.8744 16.6443C19.4526 16.6459 19.7286 16.5395 19.9176 16.4666C19.9359 16.4595 19.9534 16.4528 19.9703 16.4465C19.9703 16.4465 20.0441 16.4201 20.071 16.493L20.2451 16.9817C20.2801 17.0641 20.2521 17.0927 20.2227 17.1092C20.0569 17.2022 19.651 17.3739 18.8799 17.3764C18.5044 17.3776 18.1797 17.3237 17.9108 17.2197C17.6402 17.1148 17.4153 16.966 17.2394 16.7749C17.0652 16.5855 16.9347 16.3572 16.8538 16.0967C16.7732 15.838 16.7327 15.5522 16.7327 15.2444C16.7327 14.9433 16.7718 14.6558 16.8494 14.3937C16.9272 14.1282 17.0495 13.8965 17.2113 13.7003C17.3737 13.5042 17.58 13.3472 17.8252 13.2319C18.0705 13.1174 18.3732 13.0611 18.7063 13.0611C18.969 13.0606 19.229 13.1134 19.4708 13.2161C19.6382 13.2872 19.8056 13.4174 19.9781 13.6017ZM11.7438 16.3675C11.7784 16.4218 11.793 16.4422 11.8977 16.5258L11.8992 16.5266C11.8975 16.5261 12.1376 16.715 12.6805 16.6824C13.0627 16.6594 13.401 16.5865 13.401 16.5865H13.4006V15.3739C13.161 15.3372 12.9192 15.3165 12.6768 15.3122C12.1322 15.3054 11.9005 15.5053 11.9022 15.505C11.7416 15.6183 11.6638 15.7874 11.6638 16.0208C11.6638 16.1696 11.6908 16.2858 11.7438 16.3675ZM12.5437 14.6367C12.7111 14.6367 12.8515 14.6406 12.9597 14.6486L12.9623 14.6548C12.9623 14.6548 13.1737 14.6739 13.402 14.7071V14.5943C13.402 14.2391 13.3277 14.0702 13.1821 13.9584C13.0333 13.8442 12.8101 13.7859 12.5226 13.7859C12.5226 13.7859 11.8731 13.7774 11.3607 14.0565C11.337 14.0705 11.3169 14.0785 11.3169 14.0785C11.3169 14.0785 11.2528 14.101 11.2293 14.0352L11.0399 13.5278C11.0111 13.4543 11.0639 13.4218 11.0639 13.4218C11.3041 13.2337 11.8858 13.1208 11.8858 13.1208C12.0786 13.082 12.4016 13.055 12.6012 13.055C13.1339 13.055 13.5449 13.1784 13.8256 13.4237C14.1074 13.6689 14.2501 14.0663 14.2501 14.6007L14.2516 17.036C14.2516 17.036 14.2567 17.1065 14.1907 17.1233C14.1907 17.1233 14.092 17.1502 14.003 17.1706C13.7802 17.2189 13.5563 17.2624 13.3316 17.3012C13.0678 17.3457 12.7955 17.3687 12.5215 17.3687C12.2611 17.3687 12.0243 17.3445 11.8146 17.2966C11.6032 17.2493 11.4201 17.1694 11.2718 17.0615C11.1227 16.9535 11.0029 16.8099 10.9234 16.6438C10.8422 16.4764 10.8011 16.2718 10.8011 16.035C10.8011 15.8016 10.8493 15.5953 10.9438 15.4194C11.0375 15.2451 11.17 15.0946 11.3311 14.9797C11.4918 14.864 11.6795 14.7771 11.8875 14.721C12.0938 14.6651 12.3154 14.6367 12.5437 14.6367ZM34.4436 13.2454C34.4435 13.2551 34.4415 13.2647 34.4377 13.2736L34.4394 13.2627C34.414 13.3354 34.2839 13.7005 34.2381 13.8224C34.2207 13.8688 34.1921 13.9002 34.1407 13.8945C34.1407 13.8945 33.9876 13.8586 33.8481 13.8586C33.7268 13.8586 33.6062 13.8756 33.4896 13.909C33.3654 13.9475 33.2523 14.0154 33.1598 14.1069C33.0629 14.2016 32.9843 14.3337 32.9264 14.4992C32.8677 14.6667 32.8383 14.9322 32.8383 15.1994V17.195C32.8383 17.2164 32.8298 17.237 32.8147 17.2522C32.7995 17.2674 32.7789 17.2759 32.7575 17.276H32.0573C32.0359 17.2759 32.0153 17.2674 32.0001 17.2522C31.9849 17.237 31.9764 17.2164 31.9763 17.195V13.2207C31.9763 13.1761 32.0085 13.14 32.0528 13.14H32.736C32.781 13.14 32.8126 13.1761 32.8126 13.2207L32.813 13.5454C32.9144 13.4067 33.0974 13.2868 33.2628 13.2123C33.4302 13.1372 33.6163 13.0807 33.9511 13.1017C34.1253 13.1125 34.3521 13.1603 34.3976 13.1776C34.4066 13.1811 34.4149 13.1865 34.4218 13.1932C34.4288 13.2 34.4343 13.2082 34.438 13.2171C34.4417 13.2261 34.4436 13.2357 34.4436 13.2454Z" fill="#FFFFFE"/>
</g>
</svg>
